<svg xmlns="http://www.w3.org/2000/svg" width="769" height="611.76" viewBox="0 0 769 611.76"><defs><style>.a{fill:#afe2d2;}.b{fill:#d4e9fe;}.c{fill:#86d09f;}.d{fill:#feda8e;}.e{fill:#bde4eb;}.f{fill:#b5d9ed;}.g,.k{fill:#fff;}.h{fill:#005574;}.i{fill:#ffb53c;}.j{fill:#ff9433;font-size:11px;font-family:Raleway-Bold, Raleway;font-weight:700;letter-spacing:0.1em;}.k{font-size:23px;font-family:Raleway-SemiBold, Raleway;font-weight:600;}.l{fill:#19465b;}.m{fill:#0e3359;}.n{fill:#ff8585;}.o{fill:#edac43;}.p{fill:#ffcd5c;}.q{fill:#194757;}.r{fill:#90cde3;}.s{fill:#fffdf4;}.t{fill:#6a9def;}.u{fill:#6bc687;}.v{fill:#316891;}.w{fill:#255b7c;}.x{fill:#e8615d;}.y{fill:none;stroke:#fff;stroke-miterlimit:10;stroke-dasharray:3.522;}</style></defs><g transform="translate(-328.595 -147.728)"><g transform="translate(348.35 593.304)"><path class="a" d="M443.711,444.626s-70.549,3.718-106.917-56.214c67.386,18.6,72.048,29.385,72.048,29.385s-40.244-41.962-50.751-85.136C415.114,356.9,443.819,434.106,443.711,444.626Z" transform="translate(-336.794 -332.661)"/></g><g transform="translate(359.323 417.313)"><path class="b" d="M490.094,553.026c-4.8.7-89.914,2.518-99.351-41.663s22.434-50.212,14.958-70.508c-6.669-18.1-53.438-5.91-62.8-42.839s27.05-47.542,21.853-67.254-32.657-65.217-1.443-70.776,39.548,53.643,58.083,56.214,54.8,2.217,65.928,39.878-19.068,39.957-10.042,57c9.613,18.16,40.046-3.19,52.346,26.708S528.562,547.395,490.094,553.026Z" transform="translate(-341.348 -259.617)"/><path class="c" d="M530.549,489.331c-10.368,1.7-20.7,3.547-30.949,5.344,3.026-4.583,6.238-9.047,9.681-13.346a187,187,0,0,1,22.634-23.272q-.159-1.858-.383-3.638c-21.909,17.909-38.969,42.8-49.964,68.367q-5.486-15.226-11.3-30.334a245.979,245.979,0,0,1,22.511-40.926,243.078,243.078,0,0,1,21.9-26.949,26.749,26.749,0,0,0-3.144-1.2c-16.027,17.092-29.207,37.743-39.143,58.4-.723,1.506-1.9,5.72-3.181,7.944-4.016-10.454-8.173-20.858-12.394-31.233a9.761,9.761,0,0,0,3.879-4.313c5.905-10.929,11.262-21.321,19.49-30.816,1.123-1.3,2.274-2.554,3.445-3.785a16.264,16.264,0,0,1-2.5-1.12,127.244,127.244,0,0,0-17.124,23.675q-1.868,3.332-3.52,6.773c-1.467,3.06-2.431,5.325-4.9,6.578q-6.729-16.451-13.8-32.758l.024-.031a371.793,371.793,0,0,1,23.7-41.7.274.274,0,0,0,.275-.243c.014-.075.022-.152.036-.226,1.944-2.942,3.923-5.867,5.963-8.749,4.255-6.011,8.758-11.738,13.408-17.321q-.56-1.775-1.2-3.433c-3.547,4.46-6.987,8.977-10.317,13.483-2.376,3.214-4.677,6.484-6.944,9.777,1.646-12.406,2.392-24.935,4.648-37.3.246-1.349.542-2.689.8-4.036-.523-.494-1.05-.978-1.59-1.443-.4,2.034-.831,4.062-1.193,6.105-2.25,12.673-4.653,26.258-4.443,39.278a343.7,343.7,0,0,0-19.889,33.32c-1.328,2.549-2.561,7.173-4.906,8.8-4.973-11.406-10.119-22.737-15.343-34.033A389.955,389.955,0,0,1,449.6,334.985q3.553-5.967,7.339-11.789-1.272-.531-2.559-1-1.355,2.158-2.687,4.284a349.677,349.677,0,0,0-23.21,43.531c-1.328,2.978-2.629,5.97-3.86,8.989a25.007,25.007,0,0,1-1.166,3.024q-6.14-13.209-12.507-26.311a1,1,0,0,0,.431-.407,300.8,300.8,0,0,1,21.656-37.934q-1.435-.184-2.826-.347c-4.11,6.043-7.994,12.24-11.565,18.617-1.166,2.084-2.274,4.2-3.38,6.315.954-8.867,1.819-17.716,2.749-26.556a11.739,11.739,0,0,1-2.694-1.337,258.11,258.11,0,0,0-1.658,30.221.643.643,0,0,0,.19.465c-.952,2.342-2.236,6.582-3.643,7.486a2.986,2.986,0,0,1-.781.323q-7.947-16.307-16.259-32.433c-.132-.258-.27-.513-.4-.771q5.5-9.932,10.818-20.044-.766-1.319-1.532-2.689-2.418,4.651-4.826,9.308c-1.752,3.4-3.3,8.11-5.665,11.124q-5.587-10.759-11.36-21.422a4.788,4.788,0,0,0,1.154-.932c2.7-3.043,4.491-7.773,6.532-11.319q1.634-2.837,3.253-5.684c-.528-.812-1.067-1.607-1.612-2.39-1.822,3.337-3.643,6.662-5.5,9.948-1.629,2.889-2.995,5.746-5.5,7.3q-8.941-16.469-18.4-32.64c-.458.108-.94.2-1.371.325q8.988,16.545,17.7,33.216a8.991,8.991,0,0,1-1.711.267c-3.294.19-7.127-1.07-10.411-1.561l-15.647-2.33c.128.513.27,1.031.41,1.549q9.1,1.579,18.2,3.156c2.942.508,7.269,2.243,10.664,1.819,3.872,7.416,7.746,14.83,11.541,22.282-2.739.971-6.317-1-9.375-1.771q-6.028-1.518-12.153-2.621c-3.8-.689-7.618-1.246-11.449-1.7.234.59.47,1.181.7,1.764a191.268,191.268,0,0,1,33.221,7.621.947.947,0,0,0,.7-.077q7.741,15.262,15.268,30.623c-1.947-.487-4-1.518-5.5-1.971q-4.908-1.485-9.85-2.848c-1.125-.308-2.258-.576-3.385-.872-.858-2.747-3.185-3.995-5.614-5.6-4.669-3.079-9.392-6.079-14.107-9.086l-5.428-3.46c.178.588.345,1.161.489,1.711.135.506.222,1,.3,1.5,3.532,2.219,7.062,4.445,10.609,6.643,3.274,2.031,9,4.428,11.77,7.782-7.843-2.019-15.75-3.761-23.7-5.281-.239.554-.5,1.106-.79,1.655a372.435,372.435,0,0,1,46.434,12.379q6.856,14.12,13.5,28.342c-1.516-.116-5.195-1.66-6.2-1.949q-12.733-3.632-25.682-6.457a415.509,415.509,0,0,0-45.35-6.982c-.219.441-.436.884-.641,1.335a441.359,441.359,0,0,1,79.132,16.774q7.72,16.628,15.136,33.4c-4.351-.745-8.994-3.339-13.232-4.7-8.129-2.612-16.394-4.795-24.735-6.621l.077-.041a.585.585,0,0,0-.448-1.065c-.593.2-1.181.429-1.771.636-.342-.072-.679-.154-1.021-.226a273.584,273.584,0,0,0-53.843-5.479c.2.54.4,1.084.624,1.6a277.743,277.743,0,0,1,50,5.626c-10.283,3.8-20.47,8.308-30.5,13.078q2.1.922,4.255,1.689c9.948-4.465,19.834-9.083,29.387-14.117A279.949,279.949,0,0,1,439,422.783c4.857,11.107,9.64,22.251,14.254,33.476a14.351,14.351,0,0,1-1.5.236c-3.014.282-7.32-1.568-10.356-2.212q-5.179-1.1-10.358-2.19c-8.635-1.824-17.292-3.532-25.947-5.255a15.754,15.754,0,0,1-.125,1.694c9.242,2.127,18.485,4.272,27.754,6.3,6.563,1.436,13.825,4.053,20.538,4.363a8.118,8.118,0,0,0,1.173-.036q5.558,13.6,10.876,27.327c.624,1.617,1.224,3.241,1.843,4.86-3.154.506-9.252-2.609-11.775-3.433q-12.3-4.023-24.59-8.045-4.1-1.337-8.216-2.6-12.053-7.593-23.3-16.056c-.422.655-.848,1.32-1.287,2A210.367,210.367,0,0,0,417.3,475.717a128.359,128.359,0,0,0-23.978-4.706c-.3.571-.6,1.152-.894,1.749,11.811,1.171,23.243,4.633,34.539,8.324,13.738,4.486,27.453,9.045,41.179,13.57a1.018,1.018,0,0,0,.277.031q5.237,13.784,10.259,27.648a611.992,611.992,0,0,0-90.412-15.312c.091.552.217,1.132.323,1.694,11.917,1.472,23.807,3.132,35.645,5.1-8.667,4.732-17.246,9.691-25.8,14.707.824.865,1.694,1.7,2.595,2.5a282.635,282.635,0,0,0,24.74-16.128.868.868,0,0,0,.366-.764c2.561.434,5.115.906,7.672,1.364-4.653,8.924-9.035,18-13.35,27.106.708.287,1.417.571,2.135.841,4.441-9.153,8.809-18.343,12.883-27.65,14.827,2.684,29.583,5.771,44.224,9.4q4.872,13.582,9.553,27.233c.843-.149,1.687-.3,2.506-.52q-4.474-13.155-9.165-26.229a1.051,1.051,0,0,0,.7-.549,188.207,188.207,0,0,1,15.263-28.891.606.606,0,0,0,.429.113c10.276-1.229,20.651-2.426,31.016-3.773C530.2,491.5,530.378,490.415,530.549,489.331Z" transform="translate(-339.623 -259.208)"/></g><path class="d" d="M1059.309,378.179H328.6s4.807,19.229,36.054,24.036,38.459-14.42,74.515,0,76.917,36.057,134.606,31.247S672.319,395.006,722.8,404.62s124.992,36.054,225.946,28.843S1059.309,378.179,1059.309,378.179Z" transform="translate(0 324.796)"/><path class="e" d="M419.477,212.641H533.251s8.011-18.429-4.807-27.243-25.641,2.4-25.641,2.4,3.207-30.448-24.036-32.05c-27.195-1.6-24.036,23.236-24.036,23.236s-6.409-18.429-21.634-10.416S427.49,189.4,427.49,189.4s-14.423-4.007-16.025,8.814C410.22,208.178,419.477,212.641,419.477,212.641Z" transform="translate(116.635 11.205)"/><path class="f" d="M498.815,325.717s8.243-29.431,30.609-31.785,28.255,15.3,41.205,3.532-24.723-118.9,45.911-134.208,127.144,7.062,136.562,81.23-29.431,141.272-29.431,141.272S763.7,342.2,806.08,388.113s-12.951,196.6-12.951,196.6,49.446-21.191,62.4,14.126-36.5,89.473-36.5,89.473H569.451Z" transform="translate(239.907 15.471)"/><g transform="translate(806.443 174.229)"><path class="g" d="M774.708,523.158a49.358,49.358,0,0,1-15.9-9.365A209.383,209.383,0,0,0,786.911,495.7a146.058,146.058,0,0,0,26.749-26.578q-.5-1.149-1.051-2.214C797.891,485.817,778,500.36,756.555,511.621a35.442,35.442,0,0,1-9.37-17.09,38.364,38.364,0,0,1,11.782-36.553.755.755,0,0,0-.031-1.193c.593-.475,1.188-.947,1.776-1.424,1.568-.81,3.1-1.706,4.648-2.554a89.323,89.323,0,0,0-13.264,4.171s.091-.248.243-.675a166.226,166.226,0,0,1-24.328,9.539,136.7,136.7,0,0,1-29.448,5.537c-6.953.494-14.3.7-21.15-.882a281,281,0,0,0,28.041-51c2.634-6.221,5.065-12.519,7.387-18.853a21.325,21.325,0,0,0,9.886.67,147.826,147.826,0,0,0,50.221-18.037q.492-2.309.964-4.645A158.38,158.38,0,0,1,728.6,397.1c-4.636,1.084-9.681,2.513-14.427,1.294-.149-.039-.294-.1-.441-.142,7.539-20.88,13.765-42.237,20.535-63.374q.838-2.62,1.694-5.233c3.843-.012,8.141-1.653,11.42-2.4a199.251,199.251,0,0,0,23.783-6.739c3.364-1.224,6.655-2.6,9.849-4.132q-.007-1.569-.038-3.12-4.312,2.154-8.862,3.891a167.132,167.132,0,0,1-18.348,5.674c-3.253.826-6.525,1.588-9.8,2.315a31.926,31.926,0,0,1-4.428.964,5,5,0,0,1-2.511.313c7.539-22.815,16.09-45.316,27.845-66.208-.467-.506-.935-.949-1.4-1.434-12.1,21.08-20.858,43.718-28.628,66.788a6.722,6.722,0,0,1-.6-.371,4.992,4.992,0,0,1-4.864-3.272c-5.462-5.843-9.536-14.189-14.023-20.832-4.337-6.421-8.838-12.767-12.871-19.388-5.833-9.58-10.382-20.75-9.609-31.705a.782.782,0,0,0,.316-.648,63.356,63.356,0,0,0-10.553,8.683s.877-1.523,2.318-4.308c-14.743,12.3-23.063,30.472-27.619,49.067-6.245,25.487-8.317,51.706-15.234,77.1a386.4,386.4,0,0,1-64.4,131.167,354.408,354.408,0,0,1-28.089,32.958,116.319,116.319,0,0,1-16.063,14.155c-1.875-.017-3.749-.053-5.621-.084l.487,2.5h43.918c4.646-.294,9.288-.631,13.926-1.041-1.236.354-2.475.7-3.713,1.041h10.876c2.619-.831,5.226-1.682,7.814-2.571a564.069,564.069,0,0,0,62.076-10.8c10.734-2.491,21.562-5.269,32.327-8.411a33.281,33.281,0,0,0,3.053,9.927,48.547,48.547,0,0,0,8.361,11.852h3.253a51.058,51.058,0,0,1-9.39-13.153,30.551,30.551,0,0,1-2.735-9.353c19.967-5.954,39.661-13.3,58.025-22.93a49.443,49.443,0,0,0,14.04,9.341c9.4,4.19,19.822,5.754,30.211,5.648q.922-1.518,1.826-3.079C792.865,527.357,783.328,526.3,774.708,523.158ZM655.409,327.83c4.2-27.9,10.722-59.293,35.348-76.347-.431,8.867,2.371,18.005,6.5,26.038,4.674,9.083,10.758,17.439,16.41,25.923q4.644,6.964,9.3,13.917c2.2,3.277,4.132,7.125,6.869,9.975a7.213,7.213,0,0,0,3.713,2.05c-7.51,22.639-14.223,45.622-22.345,67.9-3.171-1.491-6.112-3.824-8.9-5.722a218.844,218.844,0,0,1-19.4-14.63c-12.271-10.519-22.494-22.954-28.966-37.852a.517.517,0,0,0-.316-.279C654.252,335.162,654.855,331.5,655.409,327.83Zm-2.171,13.155c5.453,15.037,15.794,27.426,27.737,37.885a210.574,210.574,0,0,0,19.873,15.189,59.674,59.674,0,0,0,9.462,5.64,313.224,313.224,0,0,1-36.16,69.892,31.112,31.112,0,0,1-6.754-3.118c-16.239-10.127-27.824-29.339-35.589-46.364A434.906,434.906,0,0,0,653.238,340.986Zm-114.1,217.185c11.165-8.568,20.634-19.967,29.334-30.349a383.3,383.3,0,0,0,40.856-59.314,364.641,364.641,0,0,0,21.74-46.429c6.881,17,18.328,34.8,33.394,45.446a35.612,35.612,0,0,0,8.137,4.216c-18.545,26.115-41.482,48.93-69.169,66.405a183.477,183.477,0,0,1-41.386,19.622C554.412,558.058,546.776,558.173,539.139,558.171Zm53.187-2.417c-6.455.631-12.907,1.111-19.359,1.487,33.707-13.341,63.878-37.661,87.051-64.3,5.616-6.46,10.849-13.2,15.784-20.145,14.572,4.137,32.1.99,45.841-2.4a167.4,167.4,0,0,0,26.92-9.262c-26.58,19.111-49.518,42.769-77.325,60.375a327.038,327.038,0,0,1-69.62,33.242C598.518,555.1,595.42,555.453,592.326,555.754Zm103.035-19.829a517.45,517.45,0,0,1-80.838,17.225c.831-.323,1.667-.636,2.494-.964A323.626,323.626,0,0,0,705.8,499.3c2.706-2.267,5.378-4.58,8.038-6.905a93.053,93.053,0,0,0-11.792,17.22C697.715,517.9,694.831,526.935,695.361,535.925Zm40.21-14.43c-12.254,5.163-24.838,9.679-37.635,13.642-.426-11.153,4.677-22.4,10.886-31.7,11.541-17.287,28.351-29.611,44.617-42.309a40.443,40.443,0,0,0-9.213,30.807,37.774,37.774,0,0,0,9.806,20.962C747.956,516,741.783,518.876,735.572,521.495Z" transform="translate(-525.502 -31.022)"/><path class="g" d="M528.1,679.395l.674,3.457c43.437-43.407,70.858-101.64,83.131-161.509,6.79-33.12,9.283-66.971,8.671-100.751,12.083-2.474,21.024-14.777,31.014-23.063a199.343,199.343,0,0,1,39.187-25.183c.653-1.421,1.327-2.913,2.038-4.537a198.821,198.821,0,0,0-34.956,21.012,208.4,208.4,0,0,0-20.552,17.656c-5.291,5.166-10.445,9.888-16.791,11.351q-.253-10.947-.916-21.87c-1.243-20.328-3.527-40.584-6.568-60.717-.648-4.291-1.349-8.573-2.067-12.852,17.015-.248,33.577-7.3,48.084-15.945a255.679,255.679,0,0,0,49.788-39.251q3.021-3.036,5.958-6.173c-.058-1.6-.135-3.209-.234-4.824a258.341,258.341,0,0,1-42.644,38.073,188.978,188.978,0,0,1,33.343-81.953c-.263-.638-.542-1.255-.814-1.882a184.9,184.9,0,0,0-35.7,86.059c-16.813,11.531-35.989,22.142-56.789,22.788-.508.017-1.01-.01-1.516-.01-2.812-16.521-5.893-33-7.951-49.636a263.98,263.98,0,0,1-2.094-31.722,21.581,21.581,0,0,0,7.324.253c7.814-1.1,15.579-5.472,22.376-9.264a142.723,142.723,0,0,0,18.839-12.6,149.352,149.352,0,0,0,31.6-34.278q.748-1.12,1.491-2.272-1.164-.987-2.366-1.927-1.814,2.851-3.761,5.616a145.834,145.834,0,0,1-38.931,37.784c-7.855,5.168-16.827,10.676-25.927,13.208a21.37,21.37,0,0,1-10.63.308c.34-27.021,5.86-54.011,21.326-75.963-.655-.024-1.313-.039-1.973-.053-15.107,21.8-21.347,48.716-21.892,75.282-5.667-1.995-10.637-6.139-15.064-10.864A156.592,156.592,0,0,1,552.5,175.174c-.386.345-.771.689-1.14,1.043A156.6,156.6,0,0,0,573.091,215.6c6.25,8.153,14.466,18.333,24.776,21.656,0,.865-.026,1.732-.017,2.6.272,26.655,4.869,53.011,9.368,79.353-19.926-1.128-37.278-13.04-51.489-26.472A150.43,150.43,0,0,1,533.271,265.8q.137,2.28.263,4.453a140.277,140.277,0,0,0,14.049,18.155c13.572,14.823,31.312,29.274,51.585,33.011a59.458,59.458,0,0,0,8.582.92c2.489,14.63,4.9,29.262,6.46,43.94,1.831,17.222,2.995,34.592,3.347,51.98a20.683,20.683,0,0,1-7.749-1.082c-9.071-2.976-17.466-9.274-25.084-14.88a192.925,192.925,0,0,1-21.819-18.75,196.342,196.342,0,0,1-34.8-46.159c-.385-.725-1.491-.08-1.1.648,9.264,17.425,20.126,33.293,34.071,47.34,12.787,12.876,28.944,27.188,46.089,33.854a24.209,24.209,0,0,0,10.44,1.759c.966,62.982-8.869,126.1-36.806,183.15A291.843,291.843,0,0,1,528.1,679.395Z" transform="translate(-526.922 -158.727)"/></g><g transform="translate(514.364 270.315)"><path class="h" d="M614.893,198.607,405.7,381.785V633.67H824.09V381.785Z" transform="translate(-405.697 -198.607)"/><rect class="i" width="243.021" height="344.632" transform="translate(148.003 64.437)"/><g transform="translate(158.167 76.161)"><rect class="g" width="222.295" height="29.428" transform="translate(0 33.054)"/><rect class="g" width="222.295" height="29.428" transform="translate(0 76.268)"/><rect class="g" width="222.295" height="174.983" transform="translate(0 119.482)"/><text class="j" transform="translate(10.778 49.023)"><tspan x="0" y="0">NAME</tspan></text><text class="j" transform="translate(10.778 93.261)"><tspan x="0" y="0">EMAIL</tspan></text><text class="k" transform="translate(89.712 22)"><tspan x="-72.059" y="0">CONTACT US</tspan></text></g><path class="h" d="M614.893,384.991,405.7,274.633V526.519H824.09V274.633Z" transform="translate(-405.697 -91.456)"/><path class="l" d="M614.893,322.272,405.7,459.377H824.09Z" transform="translate(-405.697 -24.314)"/></g><g transform="translate(874.376 316.263)"><path class="m" d="M595.736,384.008s8.11-5.84,13.078-7.787a38.339,38.339,0,0,1,10.23-2.272l5.26,3.9,2.923-2.923s4.677,1.949,3.217,9.411C630.443,384.008,595.736,384.008,595.736,384.008Z" transform="translate(-497.869 2.571)"/><path class="n" d="M605.167,370.852l.585,7.463,5.261,3.894,2.923-2.92-1.461-8.436Z" transform="translate(-484.576 -1.794)"/><path class="m" d="M579.774,384.008s9.592-5.84,14.56-7.787a38.338,38.338,0,0,1,10.23-2.272l5.26,3.9,2.923-2.923s4.677,1.949,3.216,9.411C615.963,384.008,579.774,384.008,579.774,384.008Z" transform="translate(-520.366 2.571)"/><path class="n" d="M589.82,370.852l.584,7.463,5.261,3.894,2.923-2.92-1.462-8.436Z" transform="translate(-506.207 -1.794)"/><path class="o" d="M589.775,281.587s.2,87.227-.964,120.973.576,99.7.576,99.7h18.569l5.161-125.946L611.5,280.271Z" transform="translate(-508.197 -129.458)"/><path class="p" d="M593.462,278.829l4.421,40.543,17.692,184.649H634l2.212-99.428s6.7-92.608,6.144-99.069a143.745,143.745,0,0,0-4.094-24.012Z" transform="translate(-501.074 -131.491)"/><path class="m" d="M568.743,228.043s25.063,31.944,51.6,33.907,43.738-7.862,61.427,5.9,39.806,85.015,34.4,111.059c-.492.492-9.828.985-9.828.985s-23.1-72.732-32.433-81.086c.492-.491,1.891,64.762,1.891,64.762-15.972,5.4-32.585,6.409-57.421,2.137l-.983-75.253s-31.944-9.828-49.142-38.823C567.76,251.139,568.743,228.043,568.743,228.043Z" transform="translate(-536.799 -203.068)"/><path class="l" d="M600.755,236.757s-12.777-4.915-11.3-18.184c.489-2.949,7.862,2.458,15.724.983s21.622,0,28.012,4.424,7.734,20.841,4.913,27.518a21.32,21.32,0,0,1-12.775,11.794Z" transform="translate(-506.892 -217.677)"/><path class="n" d="M595.961,223.556s-12.285,23.588.492,39.806c2.949,1.966,13.76-2.949,13.76-2.949v8.845L616.6,278.6l7.862-11.3-.981-12.285s6.879-4.913,7.37-11.3-6.39-4.421-6.39-4.421-14.755.983-14.264-12.777C610.2,227,595.961,223.556,595.961,223.556Z" transform="translate(-505.047 -209.392)"/><path class="n" d="M578.7,228.063s-4.913-4.915-11.794-4.915-11.794,5.9-11.794,5.9,4.915,10.811,10.322,11.3,9.828-8.356,9.828-8.356-.983,4.424,1.966,4.424S578.7,228.063,578.7,228.063Z" transform="translate(-555.117 -209.967)"/><path class="n" d="M625.876,291.643l-.492,14.741,4.424-5.9s.737,13.268,4.421,13.268,1.475-23.1,1.475-23.1Z" transform="translate(-456.083 -114.819)"/></g><g transform="translate(463.679 235.996)"><rect class="q" width="158.164" height="289.77" rx="7.539"/><path class="r" d="M519.472,188.046H482.717l-2.327,7.65H440.849l-2.662-7.65H397.634a9.3,9.3,0,0,0-9.291,9.291V429.822a9.3,9.3,0,0,0,9.291,9.291H519.472a9.3,9.3,0,0,0,9.288-9.291V197.337A9.3,9.3,0,0,0,519.472,188.046Z" transform="translate(-379.47 -179.172)"/><circle class="s" cx="45.443" cy="45.443" r="45.443" transform="translate(14.816 94.754) rotate(-45)"/><circle class="s" cx="45.443" cy="45.443" r="45.443" transform="translate(33.151 48.823)"/><circle class="t" cx="14.164" cy="14.164" r="14.164" transform="translate(64.918 65.246)"/><path class="t" d="M414.911,258.207,408.42,225.16h43.673L445.6,259.388A33.93,33.93,0,0,1,414.911,258.207Z" transform="translate(-351.174 -126.864)"/><path class="g" d="M473.733,255.033H406.455a5.031,5.031,0,0,1-5.016-5.016h0A5.031,5.031,0,0,1,406.455,245h67.278a5.03,5.03,0,0,1,5.016,5.016h0A5.03,5.03,0,0,1,473.733,255.033Z" transform="translate(-361.013 -98.902)"/><path class="g" d="M437.722,253.573H415.885a5.031,5.031,0,0,0-5.016,5.016h0a5.031,5.031,0,0,0,5.016,5.016h21.836a5.031,5.031,0,0,0,5.016-5.016h0A5.031,5.031,0,0,0,437.722,253.573Z" transform="translate(-347.723 -86.819)"/><circle class="s" cx="22.636" cy="22.636" r="22.636" transform="translate(47.069 206.885) rotate(-45)"/><circle class="u" cx="19.475" cy="19.475" r="19.475" transform="translate(59.606 187.41)"/><circle class="v" cx="12.58" cy="12.58" r="12.58" transform="translate(66.501 262.907)"/><circle class="w" cx="9.476" cy="9.476" r="9.476" transform="translate(69.606 266.012)"/><path class="g" d="M429.519,266.109l-3.021,2.455a1.926,1.926,0,0,0,.178,3.132c1.01.612,1.93,1.448,1.93,2.467,0,2.267-4.537,6.8-6.349,7.257-.81.2-1.528-.677-2.075-1.711a2.123,2.123,0,0,0-3.383-.545l-3.291,3.294a2.243,2.243,0,0,0,.212,3.368c1.865,1.422,3.79,2.949,6.585,1.831,4.535-1.814,13.288-11.681,14.649-13.948.889-1.482-.935-4.9-2.3-7.091A2.118,2.118,0,0,0,429.519,266.109Z" transform="translate(-344.936 -69.823)"/></g><path class="i" d="M604.321,147.728H455.293v91.339h25.839L460.1,306.37l59.145-67.3h85.075Z" transform="translate(178.568 0)"/><rect class="g" width="128.982" height="14.422" transform="translate(644.291 165.355)"/><rect class="g" width="128.982" height="14.422" transform="translate(644.291 186.988)"/><rect class="g" width="70.493" height="14.422" transform="translate(644.291 210.224)"/><g transform="translate(340.801 327.025)"><path class="q" d="M405.581,272l-1.6,43.265s-13.89-13.353-29.38-3.2-21.9,20.832-21.9,20.832-18.694-8.546-14.423-24.571,19.764-14.423,24.571-22.969-7.479-18.16,2.137-33.117,25.1-9.081,27.776-13.353,3.739-14.423,18.162-16.56,35.787,15.49,21.9,32.585C419.469,269.325,405.581,272,405.581,272Z" transform="translate(-328.05 -222.144)"/><path class="m" d="M365.894,302.714a66.485,66.485,0,0,0-5.609,32.85c1.6,18.7,1.335,63.565-.8,68.906s-18.695,84.661-18.695,84.661l11.751,3.739s27.778-66.769,32.585-83.861,9.613-76.65,9.613-76.65l5.609,4.007s8.011,58.755,9.616,70.506,5.074,94.545,5.074,94.545h11.216s11.218-76.383,12.82-94.545-11.218-103.091-11.218-103.091l-19.762-18.16Z" transform="translate(-323.617 -132.678)"/><path class="n" d="M371.806,370.087l-.535,13.355s14.958,11.216,17.092,11.216-5.874-13.353-5.874-13.353l1.067-7.479Z" transform="translate(-280.654 -13.634)"/><path class="m" d="M370.185,396.29s-.535-14.955,2.4-22.434c-.8,1.067,16.025,12.018,16.025,12.018s14.423,10.416,10.951,12.018-25.373-11.216-25.373-11.216l-1.6,10.148Z" transform="translate(-282.238 -8.322)"/><path class="n" d="M341.1,370.087l-.535,13.355s14.957,11.216,17.095,11.216-5.877-13.353-5.877-13.353l1.067-7.479Z" transform="translate(-323.93 -13.634)"/><path class="m" d="M339.48,396.29s-.535-14.955,2.4-22.434c-.8,1.067,16.022,12.018,16.022,12.018s14.423,10.416,10.951,12.018-25.371-11.216-25.371-11.216l-1.6,10.148Z" transform="translate(-325.514 -8.322)"/><path class="x" d="M399.44,250.73s14.958-4.272,25.641.535,22.434,30.98,29.378,38.994,47.54-.535,47.54-.535l3.2,18.162s-38.994,4.807-50.744,3.737-17.627-16.557-17.627-16.557-2.137,13.888-9.081,17.627c1.067-1.07,10.148,42.731,10.148,42.731s-8.011,3.739-14.42,3.207-9.616-9.616-9.616-9.616-1.067,9.616-9.613,11.218-28.31-5.877-28.31-5.877,5.342-30.448,6.409-41.663-4.807-25.106-4.807-25.106-28.845,19.764-27.775,69.441c-1.07-.535-16.025-1.07-16.025-1.07s-1.6-33.117,9.613-52.881S381.28,254.47,399.44,250.73Z" transform="translate(-333.661 -184.32)"/><path class="n" d="M402.419,273.94s22.434-14.42,28.845-11.216-11.753,15.49-11.753,15.49,4.274,3.2,2.672,7.479S408.3,286.76,408.3,286.76Z" transform="translate(-236.754 -165.606)"/><path class="n" d="M369.343,233.757s-8.014,0-7.479,6.409,6.944,6.409,6.944,6.409L364,275.953,374.685,286.1l5.342-9.081.533-12.285s5.877,5.874,11.218,5.874c8.546-15.49,8.011-28.843,6.409-39.526-2.67,3.2-6.944,9.616-11.751,5.342S369.878,229.483,369.343,233.757Z" transform="translate(-293.949 -209.542)"/><path class="n" d="M352.931,309.581c-2.149,1.672-4.807-5.876-4.807-5.876s-1.07,21.9-4.809,24.036-9.613-18.16-9.613-34.184c-.535-1.067,16.025,1.07,16.025,1.07S357.738,305.841,352.931,309.581Z" transform="translate(-333.622 -121.917)"/></g><path class="y" d="M421.042,347.231v80.122H739.928V284.735" transform="translate(130.293 193.097)"/></g></svg>